# This file uses centimeters as units for non-parametric coordinates.

mtllib Geo_Walkway.mtl
g default
v 12.927757 0.804218 1.414623
v 18.460884 0.804218 1.414623
v 12.927757 0.804218 -3.994186
v 18.460884 0.804218 -3.994186
v 12.927757 0.493005 1.414623
v 18.460884 0.493005 1.414623
v 18.460884 0.493005 -3.994186
v 12.927757 0.493005 -3.994186
v 13.360638 0.690868 1.173079
v 13.697220 0.690868 0.828067
v 13.360638 0.690868 0.828067
v 13.697220 0.690868 1.173079
v 13.697220 0.000000 0.828067
v 13.360638 0.000000 0.828067
v 13.697220 0.000000 1.173079
v 13.360638 0.000000 1.173079
v 13.360638 0.690868 -3.752642
v 13.697220 0.690868 -3.407630
v 13.360638 0.690868 -3.407630
v 13.697220 0.690868 -3.752642
v 13.360638 0.000000 -3.752642
v 13.697220 0.000000 -3.752642
v 13.697220 0.000000 -3.407630
v 13.360638 0.000000 -3.407630
v 18.028004 0.690868 -3.752642
v 18.028004 0.690868 -3.407630
v 17.691420 0.690868 -3.407630
v 17.691420 0.690868 -3.752642
v 17.691420 0.000000 -3.752642
v 17.691420 0.000000 -3.407630
v 18.028004 0.000000 -3.752642
v 18.028004 0.000000 -3.407630
v 18.028004 0.690868 1.173079
v 18.028004 0.690868 0.828067
v 17.691420 0.690868 0.828067
v 17.691420 0.690868 1.173079
v 18.028004 0.000000 0.828067
v 17.691420 0.000000 0.828067
v 18.028004 0.000000 1.173079
v 17.691420 0.000000 1.173079
vt 0.461745 0.716857
vt 0.461744 0.503017
vt 0.680500 0.503016
vt 0.680500 0.716857
vt 0.680500 0.943001
vt 0.461745 0.943001
vt 0.461745 0.729161
vt 0.680499 0.729161
vt 0.461745 0.955305
vt 0.680501 0.955305
vt 0.449441 0.943001
vt 0.449441 0.729161
vt 0.692804 0.943001
vt 0.692804 0.729161
vt 0.254702 0.850012
vt 0.268551 0.850012
vt 0.268551 0.878439
vt 0.254701 0.878439
vt 0.282626 0.850012
vt 0.282626 0.878439
vt 0.295933 0.850012
vt 0.295933 0.878439
vt 0.309573 0.850012
vt 0.309573 0.878439
vt 0.265739 0.904303
vt 0.279046 0.904303
vt 0.279046 0.931617
vt 0.265739 0.931617
vt 0.292686 0.904303
vt 0.292686 0.931617
vt 0.305994 0.904303
vt 0.305993 0.931617
vt 0.319633 0.904303
vt 0.319634 0.931617
vt 0.282009 0.720223
vt 0.296205 0.720223
vt 0.296205 0.748649
vt 0.282009 0.748650
vt 0.310054 0.720223
vt 0.310054 0.748649
vt 0.324250 0.720223
vt 0.324250 0.748649
vt 0.268160 0.720223
vt 0.268160 0.748650
vt 0.281297 0.791254
vt 0.295147 0.791254
vt 0.295147 0.819680
vt 0.281297 0.819680
vt 0.309343 0.791253
vt 0.309343 0.819680
vt 0.323192 0.791254
vt 0.323192 0.819680
vt 0.267102 0.791254
vt 0.267102 0.819680
vn 0.000000 -1.000000 0.000000
vn 0.000000 -1.000000 0.000000
vn 0.000000 -1.000000 0.000000
vn 0.000000 -1.000000 0.000000
vn 0.000000 1.000000 0.000000
vn 0.000000 1.000000 0.000000
vn 0.000000 1.000000 0.000000
vn 0.000000 1.000000 0.000000
vn 0.000000 0.000000 1.000000
vn 0.000000 0.000000 1.000000
vn 0.000000 0.000000 1.000000
vn 0.000000 0.000000 1.000000
vn 1.000000 0.000000 0.000000
vn 1.000000 0.000000 0.000000
vn 1.000000 0.000000 0.000000
vn 1.000000 0.000000 0.000000
vn 0.000000 0.000000 -1.000000
vn 0.000000 0.000000 -1.000000
vn 0.000000 0.000000 -1.000000
vn 0.000000 0.000000 -1.000000
vn -1.000000 0.000000 0.000000
vn -1.000000 0.000000 0.000000
vn -1.000000 0.000000 0.000000
vn -1.000000 0.000000 0.000000
vn 0.000000 0.000000 -1.000000
vn 0.000000 0.000000 -1.000000
vn 0.000000 0.000000 -1.000000
vn 0.000000 0.000000 -1.000000
vn 1.000000 0.000000 0.000000
vn 1.000000 0.000000 0.000000
vn 1.000000 0.000000 0.000000
vn 1.000000 0.000000 0.000000
vn 0.000000 0.000000 1.000000
vn 0.000000 0.000000 1.000000
vn 0.000000 0.000000 1.000000
vn 0.000000 0.000000 1.000000
vn -1.000000 0.000000 0.000000
vn -1.000000 0.000000 0.000000
vn -1.000000 0.000000 0.000000
vn -1.000000 0.000000 0.000000
vn 0.000000 0.000000 -1.000000
vn 0.000000 0.000000 -1.000000
vn 0.000000 0.000000 -1.000000
vn 0.000000 0.000000 -1.000000
vn 1.000000 0.000000 0.000000
vn 1.000000 0.000000 0.000000
vn 1.000000 0.000000 0.000000
vn 1.000000 0.000000 0.000000
vn 0.000000 0.000000 1.000000
vn 0.000000 0.000000 1.000000
vn 0.000000 0.000000 1.000000
vn 0.000000 0.000000 1.000000
vn -1.000000 0.000000 0.000000
vn -1.000000 0.000000 0.000000
vn -1.000000 0.000000 0.000000
vn -1.000000 0.000000 0.000000
vn -1.000000 0.000000 0.000000
vn -1.000000 0.000000 0.000000
vn -1.000000 0.000000 0.000000
vn -1.000000 0.000000 0.000000
vn 0.000000 0.000000 -1.000000
vn 0.000000 0.000000 -1.000000
vn 0.000000 0.000000 -1.000000
vn 0.000000 0.000000 -1.000000
vn 1.000000 0.000000 0.000000
vn 1.000000 0.000000 0.000000
vn 1.000000 0.000000 0.000000
vn 1.000000 0.000000 0.000000
vn 0.000000 0.000000 1.000000
vn 0.000000 0.000000 1.000000
vn 0.000000 0.000000 1.000000
vn 0.000000 0.000000 1.000000
vn 0.000000 0.000000 -1.000000
vn 0.000000 0.000000 -1.000000
vn 0.000000 0.000000 -1.000000
vn 0.000000 0.000000 -1.000000
vn 1.000000 0.000000 0.000000
vn 1.000000 0.000000 0.000000
vn 1.000000 0.000000 0.000000
vn 1.000000 0.000000 0.000000
vn 0.000000 0.000000 1.000000
vn 0.000000 0.000000 1.000000
vn 0.000000 0.000000 1.000000
vn 0.000000 0.000000 1.000000
vn -1.000000 0.000000 0.000000
vn -1.000000 0.000000 0.000000
vn -1.000000 0.000000 0.000000
vn -1.000000 0.000000 0.000000
s off
g Geo_Walkway Wall_Walkway_crates
usemtl initialShadingGroup
f 7/1/1 6/2/2 5/3/3 8/4/4
f 1/5/5 2/6/6 4/7/7 3/8/8
f 6/9/9 2/6/10 1/5/11 5/10/12
f 4/7/13 2/6/14 6/11/15 7/12/16
f 4/7/17 7/1/18 8/4/19 3/8/20
f 5/13/21 1/5/22 3/8/23 8/14/24
f 11/15/25 10/16/26 13/17/27 14/18/28
f 10/16/29 12/19/30 15/20/31 13/17/32
f 12/19/33 9/21/34 16/22/35 15/20/36
f 9/21/37 11/23/38 14/24/39 16/22/40
f 17/25/41 20/26/42 22/27/43 21/28/44
f 20/26/45 18/29/46 23/30/47 22/27/48
f 18/29/49 19/31/50 24/32/51 23/30/52
f 19/31/53 17/33/54 21/34/55 24/32/56
f 27/35/57 28/36/58 29/37/59 30/38/60
f 28/36/61 25/39/62 31/40/63 29/37/64
f 25/39/65 26/41/66 32/42/67 31/40/68
f 26/43/69 27/35/70 30/38/71 32/44/72
f 35/45/73 34/46/74 37/47/75 38/48/76
f 34/46/77 33/49/78 39/50/79 37/47/80
f 33/49/81 36/51/82 40/52/83 39/50/84
f 36/53/85 35/45/86 38/48/87 40/54/88
