# This file uses centimeters as units for non-parametric coordinates.

mtllib Geo_wall_Door.mtl
g default
v 49.866783 4.738256 -0.921116
v 49.866783 4.738256 0.129869
v 54.562298 4.738256 -0.921116
v 54.562298 4.738256 0.129869
v 48.953892 3.884996 -0.921116
v 48.953892 3.884996 0.129869
v 55.475189 3.884996 0.129869
v 55.475189 3.884996 -0.921116
v 48.953892 6.000000 0.129869
v 48.953892 6.000000 -0.921116
v 55.475189 6.000000 0.129869
v 55.475189 6.000000 -0.921116
vt 0.060424 0.467448
vt 0.220884 0.467869
vt 0.052779 0.699817
vt 0.211222 0.709599
vt 0.279354 0.424347
vt 0.250883 0.412194
vt 0.239414 0.766689
vt 0.008309 0.744225
vt 0.125253 0.424573
vt 0.156977 0.425907
vt 0.146470 0.748045
vt 0.114664 0.747147
vt 0.266768 0.755904
vt 0.243381 0.705177
vt 0.251470 0.474799
vt 0.019204 0.420028
vn 0.000000 1.000000 0.000000
vn 0.000000 1.000000 0.000000
vn 0.000000 1.000000 0.000000
vn 0.000000 1.000000 0.000000
vn 0.000000 -1.000000 0.000000
vn 0.000000 -1.000000 0.000000
vn 0.000000 -1.000000 0.000000
vn 0.000000 -1.000000 0.000000
vn 0.682844 -0.730565 0.000000
vn 0.682844 -0.730565 0.000000
vn 0.682844 -0.730565 0.000000
vn 0.682844 -0.730565 0.000000
vn -0.682844 -0.730565 0.000000
vn -0.682844 -0.730565 0.000000
vn -0.682844 -0.730565 0.000000
vn -0.682844 -0.730565 0.000000
vn 0.000000 0.000000 1.000000
vn 0.000000 0.000000 1.000000
vn 0.000000 0.000000 1.000000
vn -0.000000 0.000000 -1.000000
vn -0.000000 0.000000 -1.000000
vn -0.000000 0.000000 -1.000000
vn 0.000000 0.000000 1.000000
vn 0.000000 0.000000 1.000000
vn 0.000000 0.000000 -1.000000
vn 0.000000 0.000000 -1.000000
vn 0.000000 0.000000 -1.000000
vn 0.000000 0.000000 1.000000
s off
g Geo_wall_Door Door_ControlPanel
usemtl lambert13SG
f 10/9/1 9/10/2 11/11/3 12/12/4
f 3/14/5 4/4/6 2/2/7 1/15/8
f 5/5/9 1/15/10 2/2/11 6/6/12
f 3/14/13 8/13/14 7/7/15 4/4/16
s 1
f 6/6/17 2/2/18 9/10/19
s 2
f 8/8/20 3/3/21 12/12/22
s 1
f 9/10/19 2/2/18 4/4/23 11/11/24
s 2
f 1/1/25 5/16/26 10/9/27
f 10/9/27 12/12/22 3/3/21 1/1/25
s 1
f 4/4/23 7/7/28 11/11/24
