# This file uses centimeters as units for non-parametric coordinates.

mtllib Geo_Wall_Side.mtl
g default
v 20.699745 0.000000 0.500000
v 23.699745 0.000000 0.500000
v 20.699745 3.000000 0.500000
v 23.699745 3.000000 0.500000
v 20.699745 3.000000 -0.500000
v 23.699745 3.000000 -0.500000
v 20.699745 0.000000 -0.500000
v 23.699745 0.000000 -0.500000
vt 0.841163 0.323957
vt 0.959770 0.323957
vt 0.959770 0.442563
vt 0.801627 0.482099
vt 0.683020 0.442563
vt 0.801627 0.442563
vt 0.683020 0.323957
vt 0.801627 0.323957
vt 0.683020 0.482099
vt 0.841163 0.442563
vn 0.000000 0.000000 1.000000
vn 0.000000 0.000000 1.000000
vn 0.000000 0.000000 1.000000
vn 0.000000 0.000000 1.000000
vn 0.000000 1.000000 0.000000
vn 0.000000 1.000000 0.000000
vn 0.000000 1.000000 0.000000
vn 0.000000 1.000000 0.000000
vn 0.000000 0.000000 -1.000000
vn 0.000000 0.000000 -1.000000
vn 0.000000 0.000000 -1.000000
vn 0.000000 0.000000 -1.000000
vn -1.000000 0.000000 0.000000
vn -1.000000 0.000000 0.000000
vn -1.000000 0.000000 0.000000
vn -1.000000 0.000000 0.000000
s off
g Geo_Wall_Side Wall_Walkway_crates
usemtl initialShadingGroup
f 1/1/1 2/2/2 4/3/3 3/10/4
f 3/4/5 4/9/6 6/5/7 5/6/8
f 5/6/9 6/5/10 8/7/11 7/8/12
f 7/8/13 1/1/14 3/10/15 5/6/16
