# This file uses centimeters as units for non-parametric coordinates.

mtllib Geo_crates.mtl
g default
v 45.587090 4.068339 -2.844575
v 41.131767 0.353789 -2.844575
v 45.235367 4.490206 -2.844575
v 40.780045 0.775655 -2.844575
v 45.235367 4.490206 -2.361355
v 40.780045 0.775655 -2.361355
v 45.587090 4.068339 -2.361355
v 41.131767 0.353789 -2.361355
v 40.699707 0.082920 2.666023
v 40.699707 0.316896 2.900000
v 40.465729 0.316896 2.666023
v 45.905731 0.316896 2.666023
v 45.671753 0.316896 2.900000
v 45.671753 0.082920 2.666023
v 40.465729 4.528943 2.666023
v 40.699707 4.528943 2.900000
v 40.699707 4.762919 2.666023
v 45.671753 4.762919 2.666023
v 45.671753 4.528943 2.900000
v 45.905731 4.528943 2.666023
v 40.465729 4.528943 -2.666023
v 40.699707 4.762919 -2.666023
v 40.699707 4.528943 -2.900000
v 45.671753 4.528943 -2.900000
v 45.671753 4.762919 -2.666023
v 45.905731 4.528943 -2.666023
v 40.465729 0.316896 -2.666023
v 40.699707 0.316896 -2.900000
v 40.699707 0.082920 -2.666023
v 45.671753 0.082920 -2.666023
v 45.671753 0.316896 -2.900000
v 45.905731 0.316896 -2.666023
v 45.381714 0.562599 2.900000
v 40.989738 0.562599 2.900000
v 45.381714 4.283240 2.900000
v 40.989738 4.283240 2.900000
v 45.381718 4.762919 2.354988
v 40.989738 4.762919 2.354988
v 45.381718 4.762919 -2.354988
v 40.989738 4.762919 -2.354988
v 45.381714 4.283240 -2.900000
v 40.989738 4.283240 -2.900000
v 45.381714 0.562599 -2.900000
v 40.989738 0.562599 -2.900000
v 45.905731 0.562599 -2.354988
v 45.905731 0.562599 2.354988
v 45.905731 4.283240 -2.354988
v 45.905731 4.283240 2.354988
v 40.465729 0.562599 2.354988
v 40.465729 0.562599 -2.354988
v 40.465729 4.283240 2.354988
v 40.465729 4.283240 -2.354988
v 45.381714 0.562599 2.659744
v 40.989738 0.562599 2.659744
v 45.381714 4.283240 2.659744
v 40.989738 4.283240 2.659744
v 45.381718 4.522663 2.354988
v 40.989738 4.522663 2.354988
v 45.381718 4.522663 -2.354988
v 40.989738 4.522663 -2.354988
v 45.381714 4.283240 -2.659744
v 40.989738 4.283240 -2.659744
v 45.381714 0.562599 -2.659744
v 40.989738 0.562599 -2.659744
v 45.665474 0.562599 -2.354988
v 45.665474 0.562599 2.354988
v 45.665474 4.283240 -2.354988
v 45.665474 4.283240 2.354988
v 40.705982 0.562599 2.354988
v 40.705982 0.562599 -2.354988
v 40.705982 4.283240 2.354988
v 40.705982 4.283240 -2.354988
v 45.788010 0.667165 -2.520519
v 45.788010 4.566033 2.155879
v 45.788010 0.224365 -2.151343
v 45.788010 4.123233 2.525057
v 45.280811 0.224365 -2.151343
v 45.280811 4.123233 2.525057
v 45.280811 0.667165 -2.520519
v 45.280811 4.566033 2.155879
v 45.260944 4.657949 -2.550816
v 40.626778 4.657949 2.204526
v 45.654305 4.657949 -2.167478
v 41.020138 4.657949 2.587864
v 45.654305 4.252425 -2.167478
v 41.020138 4.252425 2.587864
v 45.260944 4.252425 -2.550816
v 40.626778 4.252425 2.204526
v 40.574795 4.133743 -2.512384
v 40.574795 0.234875 2.164014
v 40.574795 4.576543 -2.143208
v 40.574795 0.677674 2.533192
v 41.081989 4.576543 -2.143208
v 41.081989 0.677674 2.533192
v 41.081989 4.133743 -2.512385
v 41.081989 0.234875 2.164014
v 40.784367 4.068339 2.844575
v 45.239689 0.353789 2.844575
v 41.136089 4.490206 2.844575
v 45.591415 0.775655 2.844575
v 41.136089 4.490206 2.361355
v 45.591415 0.775655 2.361355
v 40.784367 4.068339 2.361355
v 45.239689 0.353789 2.361355
vt 0.722957 0.917966
vt 0.952290 0.917966
vt 0.952290 0.939681
vt 0.722957 0.939682
vt 0.952290 0.958785
vt 0.722957 0.958786
vt 0.722957 0.898862
vt 0.952290 0.898862
vt 0.646283 0.224322
vt 0.659856 0.225142
vt 0.650498 0.452478
vt 0.637350 0.450268
vt 0.231349 0.650949
vt 0.233342 0.637775
vt 0.444828 0.643096
vt 0.444224 0.656686
vt 0.638189 0.463734
vt 0.458242 0.456242
vt 0.460160 0.443057
vt 0.032420 0.213373
vt 0.045564 0.215606
vt 0.036242 0.441196
vt 0.022669 0.440355
vt 0.219892 0.638855
vt 0.224135 0.458631
vt 0.237354 0.460304
vt 0.446985 0.218424
vt 0.460806 0.218319
vt 0.447106 0.444567
vt 0.235585 0.447187
vt 0.447464 0.458278
vt 0.222695 0.223481
vt 0.235736 0.222056
vt 0.221746 0.447299
vt 0.458295 0.206725
vt 0.445055 0.205224
vt 0.446942 0.027256
vt 0.460376 0.026009
vt 0.235191 0.208466
vt 0.224629 0.210299
vt 0.044746 0.202141
vt 0.235476 0.024151
vt 0.235914 0.010556
vt 0.448771 0.014057
vt 0.251964 0.621831
vt 0.255591 0.476763
vt 0.429037 0.475273
vt 0.426816 0.625587
vt 0.254141 0.428194
vt 0.253992 0.241196
vt 0.428355 0.237763
vt 0.428783 0.425148
vt 0.253385 0.191395
vt 0.253704 0.041433
vt 0.428519 0.043429
vt 0.426626 0.188849
vt 0.061184 0.235374
vt 0.205976 0.242093
vt 0.204930 0.427754
vt 0.054156 0.422709
vt 0.477665 0.237904
vt 0.628397 0.242845
vt 0.621695 0.430523
vt 0.476861 0.424323
vt 0.245708 0.628030
vt 0.433177 0.632657
vt 0.249000 0.470026
vt 0.435184 0.468747
vt 0.247354 0.434474
vt 0.435120 0.431760
vt 0.247665 0.234575
vt 0.435147 0.231479
vt 0.247324 0.197953
vt 0.433298 0.195541
vt 0.247255 0.034445
vt 0.434698 0.037151
vt 0.055027 0.229051
vt 0.046914 0.428883
vt 0.212850 0.235719
vt 0.211453 0.433960
vt 0.635631 0.236663
vt 0.627863 0.436835
vt 0.469991 0.430735
vt 0.471122 0.231699
vt 0.722957 0.653126
vt 0.963670 0.653126
vt 0.963670 0.675919
vt 0.722957 0.675918
vt 0.963670 0.695971
vt 0.722957 0.695971
vt 0.722957 0.633073
vt 0.963670 0.633073
vt 0.710781 0.789872
vt 0.973294 0.789872
vt 0.973294 0.811587
vt 0.710780 0.811587
vt 0.973294 0.827620
vt 0.710780 0.827620
vt 0.710781 0.773839
vt 0.973294 0.773839
vt 0.722957 0.724726
vt 0.963670 0.724726
vt 0.963670 0.747519
vt 0.722957 0.747519
vt 0.963669 0.767571
vt 0.722957 0.767571
vt 0.722957 0.704674
vt 0.963670 0.704674
vt 0.722957 0.855427
vt 0.952290 0.855427
vt 0.952291 0.877142
vt 0.722957 0.877142
vt 0.952291 0.896247
vt 0.722957 0.896247
vt 0.722957 0.836323
vt 0.952290 0.836323
vn -0.000000 0.000000 -1.000000
vn -0.000000 0.000000 -1.000000
vn -0.000000 0.000000 -1.000000
vn -0.000000 0.000000 -1.000000
vn -0.640366 0.768070 0.000000
vn -0.640366 0.768070 0.000000
vn -0.640366 0.768070 0.000000
vn -0.640366 0.768070 0.000000
vn 0.640366 -0.768070 0.000000
vn 0.640366 -0.768070 0.000000
vn 0.640366 -0.768070 0.000000
vn 0.640366 -0.768070 0.000000
vn -0.707102 -0.707112 0.000000
vn -0.707102 -0.707112 0.000000
vn -0.707102 -0.707112 0.000000
vn -0.707102 -0.707112 0.000000
vn 0.000000 -0.707107 0.707106
vn 0.000000 -0.707107 0.707106
vn 0.000000 -0.707107 0.707106
vn 0.000000 -0.707107 0.707106
vn -0.707104 0.000000 0.707109
vn -0.707104 0.000000 0.707109
vn -0.707104 0.000000 0.707109
vn -0.707104 0.000000 0.707109
vn 0.707102 -0.707112 0.000000
vn 0.707102 -0.707112 0.000000
vn 0.707102 -0.707112 0.000000
vn 0.707102 -0.707112 0.000000
vn 0.707104 0.000000 0.707109
vn 0.707104 0.000000 0.707109
vn 0.707104 0.000000 0.707109
vn 0.707104 0.000000 0.707109
vn -0.707103 0.707111 0.000000
vn -0.707103 0.707111 0.000000
vn -0.707103 0.707111 0.000000
vn -0.707103 0.707111 0.000000
vn 0.000000 0.707106 0.707107
vn 0.000000 0.707106 0.707107
vn 0.000000 0.707106 0.707107
vn 0.000000 0.707106 0.707107
vn 0.707103 0.707111 0.000000
vn 0.707103 0.707111 0.000000
vn 0.707103 0.707111 0.000000
vn 0.707103 0.707111 0.000000
vn -0.707104 0.000000 -0.707109
vn -0.707104 0.000000 -0.707109
vn -0.707104 0.000000 -0.707109
vn -0.707104 0.000000 -0.707109
vn 0.000000 0.707106 -0.707107
vn 0.000000 0.707106 -0.707107
vn 0.000000 0.707106 -0.707107
vn 0.000000 0.707106 -0.707107
vn 0.707104 0.000000 -0.707109
vn 0.707104 0.000000 -0.707109
vn 0.707104 0.000000 -0.707109
vn 0.707104 0.000000 -0.707109
vn 0.000000 -0.707107 -0.707106
vn 0.000000 -0.707107 -0.707106
vn 0.000000 -0.707107 -0.707106
vn 0.000000 -0.707107 -0.707106
vn 0.000000 0.000000 1.000000
vn 0.000000 0.000000 1.000000
vn 0.000000 0.000000 1.000000
vn 0.000000 0.000000 1.000000
vn 0.000000 1.000000 0.000000
vn 0.000000 1.000000 0.000000
vn 0.000000 1.000000 0.000000
vn 0.000000 1.000000 0.000000
vn 0.000000 0.000000 -1.000000
vn 0.000000 0.000000 -1.000000
vn 0.000000 0.000000 -1.000000
vn 0.000000 0.000000 -1.000000
vn 1.000000 0.000000 0.000000
vn 1.000000 0.000000 0.000000
vn 1.000000 0.000000 0.000000
vn 1.000000 0.000000 0.000000
vn -1.000000 0.000000 0.000000
vn -1.000000 0.000000 0.000000
vn -1.000000 0.000000 0.000000
vn -1.000000 0.000000 0.000000
vn -0.577343 -0.577361 0.577347
vn -0.577343 -0.577361 0.577347
vn -0.577343 -0.577361 0.577347
vn 0.577350 -0.577347 0.577354
vn 0.577350 -0.577347 0.577354
vn 0.577350 -0.577347 0.577354
vn -0.577344 0.577359 0.577349
vn -0.577344 0.577359 0.577349
vn -0.577344 0.577359 0.577349
vn 0.577350 0.577345 0.577355
vn 0.577350 0.577345 0.577355
vn 0.577350 0.577345 0.577355
vn -0.577344 0.577359 -0.577349
vn -0.577344 0.577359 -0.577349
vn -0.577344 0.577359 -0.577349
vn 0.577350 0.577345 -0.577355
vn 0.577350 0.577345 -0.577355
vn 0.577350 0.577345 -0.577355
vn -0.577343 -0.577361 -0.577347
vn -0.577343 -0.577361 -0.577347
vn -0.577343 -0.577361 -0.577347
vn 0.577350 -0.577347 -0.577354
vn 0.577350 -0.577347 -0.577354
vn 0.577350 -0.577347 -0.577354
vn -0.000000 0.000000 1.000000
vn -0.000000 0.000000 1.000000
vn -0.000000 0.000000 1.000000
vn -0.000000 0.000000 1.000000
vn -0.000000 0.000000 1.000000
vn -0.000000 0.000000 1.000000
vn -0.000000 0.000000 1.000000
vn -0.000000 0.000000 1.000000
vn 0.000000 1.000000 0.000000
vn 0.000000 1.000000 0.000000
vn 0.000000 1.000000 0.000000
vn 0.000000 1.000000 0.000000
vn 0.000000 1.000000 0.000000
vn 0.000000 1.000000 0.000000
vn 0.000000 1.000000 0.000000
vn 0.000000 1.000000 0.000000
vn 0.000000 0.000000 -1.000000
vn 0.000000 0.000000 -1.000000
vn 0.000000 0.000000 -1.000000
vn 0.000000 0.000000 -1.000000
vn 0.000000 0.000000 -1.000000
vn 0.000000 0.000000 -1.000000
vn 0.000000 0.000000 -1.000000
vn 0.000000 0.000000 -1.000000
vn 1.000000 -0.000005 0.000000
vn 1.000000 -0.000006 0.000000
vn 1.000000 -0.000006 0.000000
vn 1.000000 -0.000005 0.000000
vn 1.000000 0.000005 0.000000
vn 1.000000 0.000006 0.000000
vn 1.000000 0.000005 0.000000
vn 1.000000 0.000006 0.000000
vn -1.000000 -0.000006 0.000000
vn -1.000000 -0.000005 0.000000
vn -1.000000 -0.000005 0.000000
vn -1.000000 -0.000006 0.000000
vn -1.000000 0.000005 0.000000
vn -1.000000 0.000006 0.000000
vn -1.000000 0.000005 0.000000
vn -1.000000 0.000006 0.000000
vn 0.000000 1.000000 0.000000
vn 0.000000 1.000000 0.000000
vn 0.000000 1.000000 0.000000
vn 0.000000 1.000000 0.000000
vn -1.000000 0.000000 0.000000
vn -1.000000 0.000000 0.000000
vn -1.000000 0.000000 0.000000
vn -1.000000 0.000000 0.000000
vn 0.000000 -1.000000 0.000000
vn 0.000000 -1.000000 0.000000
vn 0.000000 -1.000000 0.000000
vn 0.000000 -1.000000 0.000000
vn 1.000000 0.000000 0.000000
vn 1.000000 0.000000 0.000000
vn 1.000000 0.000000 0.000000
vn 1.000000 0.000000 0.000000
vn 0.000000 0.000000 -1.000000
vn 0.000000 0.000000 -1.000000
vn 0.000000 0.000000 -1.000000
vn 0.000000 0.000000 -1.000000
vn -1.000000 0.000000 0.000000
vn -1.000000 0.000000 0.000000
vn -1.000000 0.000000 0.000000
vn -1.000000 0.000000 0.000000
vn 0.000000 0.000000 1.000000
vn 0.000000 0.000000 1.000000
vn 0.000000 0.000000 1.000000
vn 0.000000 0.000000 1.000000
vn 1.000000 0.000000 0.000000
vn 1.000000 0.000000 0.000000
vn 1.000000 0.000000 0.000000
vn 1.000000 0.000000 0.000000
vn 0.000000 -1.000000 0.000000
vn 0.000000 -1.000000 0.000000
vn 0.000000 -1.000000 0.000000
vn 0.000000 -1.000000 0.000000
vn -1.000000 0.000000 0.000000
vn -1.000000 0.000000 0.000000
vn -1.000000 0.000000 0.000000
vn -1.000000 0.000000 0.000000
vn 0.000000 1.000000 0.000000
vn 0.000000 1.000000 0.000000
vn 0.000000 1.000000 0.000000
vn 0.000000 1.000000 0.000000
vn 1.000000 0.000000 0.000000
vn 1.000000 0.000000 0.000000
vn 1.000000 0.000000 0.000000
vn 1.000000 0.000000 0.000000
vn 0.000000 1.000000 0.000000
vn 0.000000 1.000000 0.000000
vn 0.000000 1.000000 0.000000
vn 0.000000 1.000000 0.000000
vn 0.000000 0.000000 1.000000
vn 0.000000 0.000000 1.000000
vn 0.000000 0.000000 1.000000
vn 0.000000 0.000000 1.000000
vn 0.000000 -1.000000 0.000000
vn 0.000000 -1.000000 0.000000
vn 0.000000 -1.000000 0.000000
vn 0.000000 -1.000000 0.000000
vn 0.000000 0.000000 -1.000000
vn 0.000000 0.000000 -1.000000
vn 0.000000 0.000000 -1.000000
vn 0.000000 0.000000 -1.000000
vn 0.000000 1.000000 0.000000
vn 0.000000 1.000000 0.000000
vn 0.000000 1.000000 0.000000
vn 0.000000 1.000000 0.000000
vn 0.000000 0.000000 -1.000000
vn 0.000000 0.000000 -1.000000
vn 0.000000 0.000000 -1.000000
vn 0.000000 0.000000 -1.000000
vn 0.000000 -1.000000 0.000000
vn 0.000000 -1.000000 0.000000
vn 0.000000 -1.000000 0.000000
vn 0.000000 -1.000000 0.000000
vn 0.000000 0.000000 1.000000
vn 0.000000 0.000000 1.000000
vn 0.000000 0.000000 1.000000
vn 0.000000 0.000000 1.000000
vn 1.000000 -0.000001 0.000000
vn 1.000000 -0.000001 0.000000
vn 1.000000 -0.000001 0.000000
vn 1.000000 -0.000001 0.000000
vn -0.000000 -0.768069 0.640367
vn -0.000000 -0.768069 0.640367
vn -0.000000 -0.768069 0.640367
vn -0.000000 -0.768069 0.640367
vn 0.000000 0.768069 -0.640367
vn 0.000000 0.768069 -0.640367
vn 0.000000 0.768069 -0.640367
vn 0.000000 0.768069 -0.640367
vn 0.000000 1.000000 -0.000000
vn 0.000000 1.000000 -0.000000
vn 0.000000 1.000000 -0.000000
vn 0.000000 1.000000 -0.000000
vn 0.716173 0.000000 0.697923
vn 0.716173 0.000000 0.697923
vn 0.716173 0.000000 0.697923
vn 0.716173 0.000000 0.697923
vn -0.716173 0.000000 -0.697923
vn -0.716173 0.000000 -0.697923
vn -0.716173 0.000000 -0.697923
vn -0.716173 0.000000 -0.697923
vn -1.000000 -0.000002 0.000000
vn -1.000000 -0.000002 0.000000
vn -1.000000 -0.000002 0.000000
vn -1.000000 -0.000002 0.000000
vn 0.000000 0.768073 0.640363
vn 0.000000 0.768073 0.640363
vn 0.000000 0.768073 0.640363
vn 0.000000 0.768073 0.640363
vn -0.000000 -0.768071 -0.640365
vn -0.000000 -0.768071 -0.640365
vn -0.000000 -0.768071 -0.640365
vn -0.000000 -0.768071 -0.640365
vn 0.000000 0.000000 1.000000
vn 0.000000 0.000000 1.000000
vn 0.000000 0.000000 1.000000
vn 0.000000 0.000000 1.000000
vn 0.640365 0.768071 0.000000
vn 0.640365 0.768071 0.000000
vn 0.640365 0.768071 0.000000
vn 0.640365 0.768071 0.000000
vn -0.640366 -0.768070 0.000000
vn -0.640366 -0.768070 0.000000
vn -0.640366 -0.768070 0.000000
vn -0.640366 -0.768070 0.000000
s off
g Geo_crates Wall_Walkway_crates
usemtl initialShadingGroup
f 1/1/1 2/2/2 4/3/3 3/4/4
f 3/4/5 4/3/6 6/5/7 5/6/8
f 7/7/9 8/8/10 2/2/11 1/1/12
f 27/9/13 29/10/14 9/11/15 11/12/16
f 14/13/17 13/14/18 10/15/19 9/16/20
f 11/12/21 10/17/22 16/18/23 15/19/24
f 30/20/25 32/21/26 12/22/27 14/23/28
f 13/14/29 12/24/30 20/25/31 19/26/32
f 22/27/33 21/28/34 15/19/35 17/29/36
f 19/26/37 18/30/38 17/29/39 16/31/40
f 26/32/41 25/33/42 18/30/43 20/34/44
f 21/35/45 23/36/46 28/37/47 27/38/48
f 25/33/49 24/39/50 23/36/51 22/27/52
f 24/40/53 26/32/54 32/21/55 31/41/56
f 31/42/57 30/43/58 29/44/59 28/37/60
f 53/45/61 55/46/62 56/47/63 54/48/64
f 57/49/65 59/50/66 60/51/67 58/52/68
f 61/53/69 63/54/70 64/55/71 62/56/72
f 65/57/73 67/58/74 68/59/75 66/60/76
f 72/61/77 70/62/78 69/63/79 71/64/80
f 9/11/81 10/17/82 11/12/83
f 12/24/84 13/14/85 14/13/86
f 15/19/87 16/18/88 17/29/89
f 18/30/90 19/26/91 20/25/92
f 21/35/93 22/27/94 23/36/95
f 24/40/96 25/33/97 26/32/98
f 27/38/99 28/37/100 29/44/101
f 30/20/102 31/41/103 32/21/104
s 1
f 13/14/105 33/65/106 34/66/107 10/15/108
f 13/14/105 19/26/109 35/67/110 33/65/106
f 35/67/110 19/26/109 16/31/111 36/68/112
f 16/31/111 10/15/108 34/66/107 36/68/112
s 2
f 17/29/113 18/30/114 37/69/115 38/70/116
f 25/33/117 39/71/118 37/69/115 18/30/114
f 39/71/118 25/33/117 22/27/119 40/72/120
f 40/72/120 22/27/119 17/29/113 38/70/116
s 3
f 24/39/121 41/73/122 42/74/123 23/36/124
f 24/39/121 31/42/125 43/75/126 41/73/122
f 43/75/126 31/42/125 28/37/127 44/76/128
f 28/37/127 23/36/124 42/74/123 44/76/128
s 4
f 32/21/129 45/77/130 46/78/131 12/22/132
f 32/21/129 26/32/133 47/79/134 45/77/130
f 47/79/134 26/32/133 20/34/135 48/80/136
f 20/34/135 12/22/132 46/78/131 48/80/136
s 5
f 50/81/137 27/9/138 11/12/139 49/82/140
f 11/12/139 15/19/141 51/83/142 49/82/140
f 21/28/143 52/84/144 51/83/142 15/19/141
f 21/28/143 27/9/138 50/81/137 52/84/144
s off
f 33/65/145 53/45/146 54/48/147 34/66/148
f 33/65/149 35/67/150 55/46/151 53/45/152
f 55/46/153 35/67/154 36/68/155 56/47/156
f 36/68/157 34/66/158 54/48/159 56/47/160
f 37/69/161 57/49/162 58/52/163 38/70/164
f 39/71/165 59/50/166 57/49/167 37/69/168
f 59/50/169 39/71/170 40/72/171 60/51/172
f 60/51/173 40/72/174 38/70/175 58/52/176
f 41/73/177 61/53/178 62/56/179 42/74/180
f 41/73/181 43/75/182 63/54/183 61/53/184
f 63/54/185 43/75/186 44/76/187 64/55/188
f 44/76/189 42/74/190 62/56/191 64/55/192
f 45/77/193 65/57/194 66/60/195 46/78/196
f 45/77/197 47/79/198 67/58/199 65/57/200
f 67/58/201 47/79/202 48/80/203 68/59/204
f 48/80/205 46/78/206 66/60/207 68/59/208
f 70/62/209 50/81/210 49/82/211 69/63/212
f 49/82/213 51/83/214 71/64/215 69/63/216
f 52/84/217 72/61/218 71/64/219 51/83/220
f 52/84/221 50/81/222 70/62/223 72/61/224
f 73/85/225 74/86/226 76/87/227 75/88/228
f 75/88/229 76/87/230 78/89/231 77/90/232
f 79/91/233 80/92/234 74/86/235 73/85/236
f 81/93/237 82/94/238 84/95/239 83/96/240
f 83/96/241 84/95/242 86/97/243 85/98/244
f 87/99/245 88/100/246 82/94/247 81/93/248
f 89/101/249 90/102/250 92/103/251 91/104/252
f 91/104/253 92/103/254 94/105/255 93/106/256
f 95/107/257 96/108/258 90/102/259 89/101/260
f 97/109/261 98/110/262 100/111/263 99/112/264
f 99/112/265 100/111/266 102/113/267 101/114/268
f 103/115/269 104/116/270 98/110/271 97/109/272
